<svg xmlns="http://www.w3.org/2000/svg" viewBox="0 0 256 256">
  <rect fill="#1F8DED" width="256" height="256" rx="32"/>
  <path fill="#fff" d="M64 80v72c0 4.4 3.6 8 8 8s8-3.6 8-8V80c0-4.4-3.6-8-8-8s-8 3.6-8 8z"/>
  <path fill="#fff" d="M96 64v104c0 4.4 3.6 8 8 8s8-3.6 8-8V64c0-4.4-3.6-8-8-8s-8 3.6-8 8z"/>
  <path fill="#fff" d="M128 56v112c0 4.4 3.6 8 8 8s8-3.6 8-8V56c0-4.4-3.6-8-8-8s-8 3.6-8 8z"/>
  <path fill="#fff" d="M160 64v104c0 4.4 3.6 8 8 8s8-3.6 8-8V64c0-4.4-3.6-8-8-8s-8 3.6-8 8z"/>
  <path fill="#fff" d="M192 80v72c0 4.4 3.6 8 8 8s8-3.6 8-8V80c0-4.4-3.6-8-8-8s-8 3.6-8 8z"/>
  <path fill="#fff" d="M128 208c-44.2 0-80-28.7-80-64v-8h16v8c0 26.5 28.7 48 64 48s64-21.5 64-48v-8h16v8c0 35.3-35.8 64-80 64z"/>
</svg>
