<svg xmlns="http://www.w3.org/2000/svg" viewBox="0 0 100 100">
  <linearGradient id="linear-gradient" x1="0%" y1="100%" x2="100%" y2="0%">
    <stop offset="0%" stop-color="#5E6AD2"/>
    <stop offset="100%" stop-color="#8B93E8"/>
  </linearGradient>
  <path fill="url(#linear-gradient)" d="M1.22541 61.5228c-.2225-.9485.90748-1.5459 1.59638-.857L39.3342 98.1789c.6889.6889.0915 1.8189-.857 1.5765C17.0366 94.7538 5.25016 82.9666 1.22541 61.5228zM.00189459 46.8891c-.01764375.2833.08887215.5599.29639765.7674l52.047499 52.0476c.2079.2078.4847.3143.768.2967 1.9168-.1188 3.7914-.3414 5.6167-.6542.297-.0508.5678-.2031.7445-.4281.1767-.2251.2556-.5036.217-.7756l-3.4433-24.2441c-.0599-.4221-.3179-.7948-.6935-.9991L7.85324 44.0514c-.20425-.1113-.44383-.1543-.67867-.1217L.780191 44.8813c-.270653.0374-.504147.1928-.64799.4226-.143842.2298-.18775.5074-.14029.7804.09749.5617.18613 1.1258.26553 1.6923.02173.1551.03234.3115.0019.4624zm2.49673-14.0591c.09919-.2906.30165-.5343.56771-.6834l4.84009-2.7099c.37426-.2095.8364-.1872 1.1898.0573l44.34787 30.6388c.3536.2445.5272.6728.446 1.1007l-2.5965 13.7152c-.1141.6032-.6904.999-1.2988.8918l-5.5602-.9791c-.2903-.0511-.5548-.2047-.7443-.4325L1.44368 37.3343c-.21545-.2593-.30853-.5948-.25754-.928.15139-.9877.33138-1.9665.54-.9343-.00067 0-.00067-.0001 0-.0002.29116-.8582.62129-1.6994.98936-2.5224.0666-.1489.16527-.2835.29122-.3965zm4.56613-9.2459c.13233-.2025.31769-.3673.53673-.4771l5.2535-2.6329c.3987-.1998.8727-.1498 1.2244.129l42.8525 33.9858c.3188.2528.4748.654.4036 1.0393l-1.3546 7.3336c-.1227.6648-.7888 1.0762-1.4364.8871l-5.2716-1.5401c-.28-.0818-.5234-.2616-.6941-.5126L4.30367 26.8189c-.24422-.3587-.29236-.8142-.12663-1.2004.46982-1.0944 1.00003-2.1558 1.58715-3.1807.0523-.0912.11473-.1755.18698-.2504zM12.31 21.3438c.0828-.116.1875-.2149.3077-.2908l4.9202-3.1043c.3586-.2262.8156-.2193 1.1677.018L60.2628 48.334c.3202.216.4821.5987.4105.9712l-.5723 2.9756c-.1162.604-.7099.9972-1.3082.8665l-6.1618-1.3461c-.3049-.0666-.5724-.2586-.7405-.5311L13.2683 24.5815c-.333-.5408-.2716-1.2297.1491-1.7047.3992-.4511.8183-.8847 1.2567-1.2994.1152-.109.2452-.2015.3879-.2652zm7.7101-6.0326c.1106-.1156.2406-.2119.3844-.2842l5.0773-2.5524c.4193-.2108.92-.1571 1.2877.138l30.6576 24.6067c.3093.2482.4654.6358.4057 1.0065l-.0893.5537c-.0916.5674-.6058.9622-1.175.9019l-5.0227-.5321c-.3259-.0345-.6213-.196-.8247-.4509L14.9654 16.0323c-.2804-.3516-.3269-.8322-.1198-1.2347.3549-.6901.7414-1.3625 1.1587-2.0151.1206-.1887.2855-.3442.481-.4547zm9.2262-4.6917c.0943-.0877.2015-.1621.3181-.2208l3.5323-1.7759c.3958-.1989.8669-.1554 1.22.1127l18.0588 13.7175c.3188.2421.4816.6346.4189 1.0095l-.0217.1295c-.098.5837-.6397.9863-1.2249.9109l-4.2746-.551c-.307-.0395-.587-.1934-.7853-.4319L21.019 11.2954c-.2556-.3072-.3212-.7296-.1714-1.1027.166-.4136.3534-.8183.5624-1.2128.0787-.1485.1878-.2787.3222-.3841zm9.1048-4.6018c.0872-.075.1857-.1367.2924-.1833l4.1003-1.7906c.4115-.1797.8859-.1095 1.2279.1816l8.0188 6.826c.2973.2531.4434.6393.3826 1.0099l-.0204.1244c-.0887.5406-.5642.9325-1.1107.9155l-2.6561-.0826c-.3148-.0098-.6097-.1512-.8212-.3939L30.7182 6.0773c-.2668-.3062-.3469-.7285-.2093-1.103.0697-.1899.1629-.3709.2788-.5392.0805-.1168.1824-.2176.3013-.297z"/>
</svg>
