<svg xmlns="http://www.w3.org/2000/svg" viewBox="0 0 64 64" fill="none">
  <circle cx="32" cy="32" r="28" fill="#25D366"/>
  <path d="M32 16C23.2 16 16 23.2 16 32c0 2.8.7 5.5 2.1 7.9L16 48l8.3-2.1C26.6 47.3 29.2 48 32 48c8.8 0 16-7.2 16-16S40.8 16 32 16zm8.4 22.4c-.4 1-2 1.9-2.8 2-.7.1-1.7.2-5.4-1.1-4.5-1.7-7.4-6.3-7.6-6.6-.2-.3-1.8-2.4-1.8-4.6 0-2.2 1.1-3.2 1.5-3.7.4-.4.9-.5 1.2-.5h.9c.3 0 .7 0 1 .8.4 1 1.3 3.2 1.4 3.4.1.2.2.5 0 .8-.1.3-.2.5-.4.7-.2.2-.4.5-.6.7-.2.2-.4.4-.2.8.2.4 1.1 1.8 2.3 2.9 1.6 1.4 2.9 1.9 3.3 2.1.4.2.7.2.9-.1.3-.3 1-1.2 1.3-1.6.3-.4.6-.3 1-.2.4.1 2.4 1.1 2.8 1.3.4.2.7.3.8.5.1.2.1 1.2-.3 2.4z" fill="white"/>
</svg>